<?xml version="1.0" encoding="utf-8"?>
<!-- Generator: Adobe Illustrator 16.0.4, SVG Export Plug-In . SVG Version: 6.00 Build 0)  -->
<!DOCTYPE svg PUBLIC "-//W3C//DTD SVG 1.1//EN" "http://www.w3.org/Graphics/SVG/1.1/DTD/svg11.dtd">
<svg version="1.1" xmlns="http://www.w3.org/2000/svg" xmlns:xlink="http://www.w3.org/1999/xlink" x="0px" y="0px" width="242.5px"
	 height="242.5px" viewBox="0 0 242.5 242.5" style="enable-background:new 0 0 242.5 242.5;" xml:space="preserve">
<style type="text/css">
<![CDATA[
	.st0{fill:#FFFFFF;}
]]>
</style>
<g id="Layer_1">
</g>
<g id="Layer_2">
	<path class="st0" d="M121.2,0C54.4,0,0,54.4,0,121.2s54.4,121.2,121.2,121.2c66.9,0,121.2-54.4,121.2-121.2S188.1,0,121.2,0z"/>
	<path d="M121.2,0C54.4,0,0,54.4,0,121.2s54.4,121.2,121.2,121.2c66.9,0,121.2-54.4,121.2-121.2S188.1,0,121.2,0z M121.2,218.5
		c-53.6,0-97.2-43.6-97.2-97.2S67.6,24,121.2,24c28.1,0,53.5,12,71.2,31.1L182,61.2c-15.5-15.7-37-25.4-60.8-25.4
		c-47.2,0-85.4,38.2-85.4,85.4c0,47.2,38.2,85.4,85.4,85.4c23.8,0,45.3-9.7,60.8-25.4l11.9,4.5C176.1,205.8,150.1,218.5,121.2,218.5
		z M134.6,134.9l-13,7.5l-39.3-22.7V74.3l39.3-22.7l39.3,22.7l-26.3,15.2l0,0l-13-7.5l-13,7.5v15l13,7.5l13-7.5l26.3,15.2l0.1,0.1
		l0,48.5L121.7,191l-39.3-22.7l0-39l26.4,15.2l0,8.6l13,7.5l13-7.5L134.6,134.9z"/>
</g>
</svg>
